<?xml version="1.0" encoding="UTF-8" standalone="no"?>
<!-- Created with Inkscape (http://www.inkscape.org/) -->

<svg
   version="1.1"
   id="svg1"
   width="214.66667"
   height="238.66667"
   viewBox="0 0 214.66667 238.66667"
   sodipodi:docname="logo.svg"
   xml:space="preserve"
   inkscape:version="1.4 (86a8ad7, 2024-10-11)"
   xmlns:inkscape="http://www.inkscape.org/namespaces/inkscape"
   xmlns:sodipodi="http://sodipodi.sourceforge.net/DTD/sodipodi-0.dtd"
   xmlns:xlink="http://www.w3.org/1999/xlink"
   xmlns="http://www.w3.org/2000/svg"
   xmlns:svg="http://www.w3.org/2000/svg"><defs
     id="defs1"><linearGradient
       id="swatch227"
       inkscape:swatch="solid"><stop
         style="stop-color:#b466d3;stop-opacity:1;"
         offset="0"
         id="stop227" /></linearGradient><linearGradient
       id="swatch222"
       inkscape:swatch="solid"><stop
         style="stop-color:#b466d3;stop-opacity:1;"
         offset="0"
         id="stop222" /></linearGradient><linearGradient
       id="swatch213"
       inkscape:swatch="solid"><stop
         style="stop-color:#171717;stop-opacity:1;"
         offset="0"
         id="stop213" /></linearGradient><linearGradient
       inkscape:collect="always"
       xlink:href="#swatch227"
       id="linearGradient227"
       x1="36.213872"
       y1="51.769177"
       x2="48.287552"
       y2="51.769177"
       gradientUnits="userSpaceOnUse" /></defs><sodipodi:namedview
     id="namedview1"
     pagecolor="#ffffff"
     bordercolor="#000000"
     borderopacity="0.25"
     inkscape:showpageshadow="2"
     inkscape:pageopacity="0.0"
     inkscape:pagecheckerboard="0"
     inkscape:deskcolor="#d1d1d1"
     inkscape:zoom="2.3170391"
     inkscape:cx="50.063895"
     inkscape:cy="53.73237"
     inkscape:window-width="1366"
     inkscape:window-height="715"
     inkscape:window-x="-8"
     inkscape:window-y="-8"
     inkscape:window-maximized="1"
     inkscape:current-layer="g1" /><g
     inkscape:groupmode="layer"
     inkscape:label="Image"
     id="g1"><g
       id="g227"
       transform="matrix(17.214903,0,0,16.137984,-620.43165,-716.12698)"><path
         style="fill:#b466d3;stroke:url(#linearGradient227);stroke-width:0.2;stroke-dasharray:none"
         d="m 42.167443,59.001412 c -1.609202,5.29e-4 -2.941848,-0.01506 -2.961435,-0.03465 -0.01959,-0.01959 -0.141192,-0.05476 -0.270234,-0.07816 -0.129041,-0.0234 -0.427139,-0.136735 -0.662438,-0.251857 -0.2353,-0.115121 -0.608506,-0.371766 -0.829348,-0.570321 -0.220841,-0.198556 -0.518705,-0.543611 -0.661918,-0.76679 -0.143213,-0.223178 -0.329517,-0.627892 -0.414008,-0.899363 -0.08449,-0.271472 -0.153877,-0.700142 -0.154189,-0.9526 -3.12e-4,-0.252459 0.05293,-0.860387 0.118326,-1.350952 0.06539,-0.490566 0.173513,-1.329797 0.24027,-1.864959 0.06676,-0.535162 0.184305,-1.457687 0.261218,-2.050055 0.08725,-0.672019 0.193857,-1.165854 0.28348,-1.313229 0.079,-0.129907 0.237759,-0.297864 0.352794,-0.373238 0.122792,-0.08046 0.442074,-0.153709 0.773238,-0.177404 0.310246,-0.0222 0.595729,-0.0811 0.634407,-0.130889 0.03868,-0.04979 0.113912,-0.27297 0.167187,-0.495954 0.05327,-0.222984 0.247834,-0.712528 0.432357,-1.087875 0.221109,-0.449771 0.489266,-0.838319 0.786506,-1.139614 0.248056,-0.25144 0.633453,-0.561974 0.856437,-0.690075 0.362313,-0.208142 0.483031,-0.233266 1.135193,-0.236253 0.662335,-0.003 0.767228,0.01848 1.135192,0.232824 0.222984,0.129891 0.611558,0.448343 0.863498,0.707671 0.301353,0.31019 0.568622,0.700114 0.781195,1.139701 0.177718,0.367507 0.369496,0.850637 0.426175,1.073621 0.05668,0.222984 0.134303,0.446164 0.172498,0.495954 0.03819,0.04979 0.323283,0.108691 0.633528,0.130889 0.331164,0.02369 0.650446,0.09695 0.773238,0.177404 0.115035,0.07537 0.275972,0.246914 0.357636,0.381201 0.09628,0.158312 0.195683,0.620038 0.282732,1.313228 0.07384,0.587989 0.18568,1.470443 0.248538,1.961008 0.06286,0.490565 0.138177,1.109587 0.167377,1.375605 0.0292,0.266017 0.06809,0.557924 0.08643,0.648681 0.01834,0.09076 0.05667,0.484145 0.08519,0.874195 0.04026,0.550669 0.0198,0.827578 -0.09153,1.238889 -0.07886,0.291339 -0.278506,0.738766 -0.443653,0.994281 -0.165148,0.255516 -0.472189,0.615905 -0.682315,0.800864 -0.210125,0.18496 -0.554137,0.417841 -0.764472,0.517514 -0.210334,0.09967 -0.564868,0.23039 -0.787852,0.290483 -0.304341,0.08202 -1.134922,0.109499 -3.331249,0.110222 z m 0.07833,-0.863698 c 1.555659,-0.0073 2.959198,-0.03779 3.118977,-0.06777 0.159779,-0.02998 0.401234,-0.110648 0.536565,-0.179273 0.135332,-0.06863 0.400928,-0.250214 0.590214,-0.40353 0.189286,-0.153316 0.439044,-0.440669 0.555017,-0.638562 0.115973,-0.197893 0.265981,-0.569623 0.333352,-0.826067 0.07492,-0.285158 0.104693,-0.623737 0.07667,-0.871688 -0.0252,-0.222984 -0.102778,-0.86153 -0.172385,-1.418991 -0.06961,-0.557455 -0.181159,-1.451419 -0.24789,-1.986581 -0.06673,-0.535162 -0.158369,-1.280836 -0.203641,-1.657053 -0.04527,-0.376217 -0.122105,-0.731979 -0.17074,-0.790581 -0.05092,-0.06136 -0.256168,-0.106549 -0.483925,-0.106549 -0.395498,0 -0.395498,0 -0.395498,0.368569 0,0.283207 -0.0461,0.414665 -0.199027,0.567596 -0.109465,0.109465 -0.232253,0.199028 -0.272863,0.199028 -0.04061,0 -0.168023,-0.07409 -0.283142,-0.164641 -0.162838,-0.128088 -0.21477,-0.249599 -0.233919,-0.547324 -0.02461,-0.382685 -0.02461,-0.382685 -2.538253,-0.382685 -2.51364,0 -2.51364,0 -2.538254,0.382685 -0.01879,0.292182 -0.07175,0.419765 -0.223948,0.539481 -0.115479,0.09084 -0.268194,0.13879 -0.363022,0.113992 -0.09003,-0.02354 -0.217303,-0.119353 -0.282834,-0.212912 -0.06553,-0.09356 -0.119147,-0.326185 -0.119147,-0.516947 0,-0.346842 0,-0.346842 -0.395497,-0.346842 -0.227758,0 -0.433002,0.04519 -0.483926,0.106549 -0.04863,0.0586 -0.128373,0.432608 -0.177195,0.831123 -0.04882,0.398516 -0.138604,1.125946 -0.199517,1.616511 -0.06091,0.490565 -0.169569,1.366285 -0.241459,1.946044 -0.07189,0.579759 -0.148133,1.266435 -0.16943,1.525946 -0.02413,0.293987 0.0073,0.626895 0.08344,0.8832 0.06719,0.226249 0.214012,0.568093 0.326274,0.759655 0.112263,0.191561 0.372141,0.485978 0.577508,0.654261 0.205367,0.168283 0.597412,0.380366 0.87121,0.471295 0.466373,0.154884 0.676469,0.164489 3.326285,0.152061 z m -0.0012,-9.838581 c 2.321604,0 2.321604,0 2.321604,-0.20835 0,-0.114593 -0.11347,-0.480918 -0.252156,-0.814056 -0.164517,-0.395188 -0.39689,-0.764067 -0.668586,-1.061346 -0.229036,-0.250602 -0.562547,-0.522021 -0.741137,-0.603154 -0.178589,-0.08113 -0.470661,-0.147513 -0.649048,-0.147513 -0.178388,0 -0.470294,0.0672 -0.648682,0.149334 -0.178387,0.08213 -0.47784,0.305871 -0.66545,0.497194 -0.18761,0.191323 -0.473982,0.616774 -0.636382,0.945446 -0.1624,0.328673 -0.314734,0.74268 -0.338519,0.920016 -0.04325,0.322429 -0.04325,0.322429 2.278356,0.322429 z"
         id="path226"
         sodipodi:nodetypes="ssssssssssssssssssscssssssssssssssssssssssssssssssssssssssssssssssssscsssssssssssssss" /><path
         style="fill:#171717"
         d="m 42.362918,55.998416 c -0.144158,0 -0.306115,-0.07803 -0.425329,-0.20493 -0.129082,-0.137402 -0.192521,-0.301178 -0.192521,-0.497019 0,-0.220886 0.05659,-0.340768 0.232159,-0.491783 0.179543,-0.154437 0.288886,-0.188754 0.482457,-0.151419 0.137663,0.02655 0.314152,0.125186 0.392196,0.219186 0.07804,0.094 0.141899,0.296235 0.141899,0.44941 0,0.187579 -0.06498,0.343477 -0.199027,0.477528 -0.118886,0.118886 -0.29277,0.199027 -0.431834,0.199027 z m -1.474377,-1.540618 c -0.0341,0 -0.158189,-0.138792 -0.275746,-0.308428 -0.117558,-0.169635 -0.213741,-0.351559 -0.213741,-0.404275 0,-0.05272 0.136831,-0.184983 0.304069,-0.293925 0.167239,-0.108943 0.520265,-0.25986 0.784503,-0.335371 0.328761,-0.09395 0.652604,-0.124974 1.025804,-0.09827 0.378357,0.02707 0.709576,0.115862 1.081566,0.289937 0.294907,0.138003 0.557308,0.305937 0.583114,0.373185 0.0258,0.06725 -0.05679,0.268839 -0.183551,0.447978 -0.126759,0.17914 -0.266959,0.326335 -0.311556,0.3271 -0.0446,7.66e-4 -0.260588,-0.08968 -0.479982,-0.200981 -0.296288,-0.150317 -0.525721,-0.20217 -0.891936,-0.201582 -0.353958,5.69e-4 -0.615397,0.05775 -0.926789,0.202713 -0.238562,0.111057 -0.461651,0.201921 -0.495755,0.201921 z M 39.707903,53.07935 c -0.0537,0 -0.19811,-0.14497 -0.320899,-0.322156 -0.12279,-0.177185 -0.20306,-0.374782 -0.178377,-0.439103 0.02468,-0.06432 0.275259,-0.244751 0.556838,-0.400956 0.281579,-0.156204 0.749135,-0.362282 1.039015,-0.45795 0.294604,-0.09723 0.851948,-0.19447 1.263715,-0.220484 0.542444,-0.03427 0.901853,-0.0098 1.363227,0.09286 0.344612,0.07667 0.955081,0.303853 1.3566,0.504854 0.401519,0.201001 0.7483,0.413057 0.770625,0.471235 0.02233,0.05818 -0.06217,0.254228 -0.18776,0.435664 -0.125593,0.181437 -0.265528,0.33127 -0.310967,0.332962 -0.04544,0.0017 -0.368925,-0.140756 -0.718858,-0.316552 -0.349933,-0.175796 -0.816266,-0.358238 -1.036296,-0.405426 -0.22003,-0.04719 -0.668077,-0.0858 -0.995661,-0.0858 -0.369582,0 -0.791164,0.06151 -1.110929,0.162086 -0.283428,0.08915 -0.712717,0.271589 -0.953976,0.405425 -0.241258,0.133837 -0.482592,0.24334 -0.536297,0.243341 z"
         id="path225" /></g></g></svg>
